Rubik-Light.ufo
<glyph name="S" format="2">
  <advance width="605"/>
  <unicode hex="0053"/>
  <guideline y="355"/>
  <guideline x="306"/>
  <anchor x="303" y="0" name="bottom"/>
  <anchor x="303" y="700" name="top"/>
  <outline>
    <contour>
      <point x="304" y="-10" type="curve" smooth="yes"/>
      <point x="459" y="-10"/>
      <point x="555" y="60"/>
      <point x="555" y="181" type="curve" smooth="yes"/>
      <point x="555" y="291"/>
      <point x="484" y="329"/>
      <point x="334" y="377" type="curve" smooth="yes"/>
      <point x="191" y="423"/>
      <point x="131" y="450"/>
      <point x="131" y="530" type="curve" smooth="yes"/>
      <point x="131" y="612"/>
      <point x="200" y="650"/>
      <point x="299" y="650" type="curve" smooth="yes"/>
      <point x="397" y="650"/>
      <point x="464" y="601"/>
      <point x="472" y="535" type="curve" smooth="yes"/>
      <point x="474" y="519"/>
      <point x="487" y="515"/>
      <point x="494" y="515" type="curve" smooth="yes"/>
      <point x="514" y="515" type="line" smooth="yes"/>
      <point x="528" y="515"/>
      <point x="535" y="525"/>
      <point x="535" y="535" type="curve" smooth="yes"/>
      <point x="532" y="612"/>
      <point x="457" y="710"/>
      <point x="299" y="710" type="curve" smooth="yes"/>
      <point x="151" y="710"/>
      <point x="68" y="631"/>
      <point x="68" y="530" type="curve" smooth="yes"/>
      <point x="68" y="420"/>
      <point x="131" y="379"/>
      <point x="274" y="333" type="curve" smooth="yes"/>
      <point x="423" y="285"/>
      <point x="492" y="260"/>
      <point x="492" y="181" type="curve" smooth="yes"/>
      <point x="492" y="101"/>
      <point x="434" y="50"/>
      <point x="304" y="50" type="curve" smooth="yes"/>
      <point x="174" y="50"/>
      <point x="119" y="114"/>
      <point x="111" y="170" type="curve" smooth="yes"/>
      <point x="109" y="181"/>
      <point x="102" y="190"/>
      <point x="89" y="190" type="curve" smooth="yes"/>
      <point x="69" y="190" type="line" smooth="yes"/>
      <point x="57" y="190"/>
      <point x="48" y="181"/>
      <point x="48" y="170" type="curve" smooth="yes"/>
      <point x="51" y="79"/>
      <point x="142" y="-10"/>
    </contour>
  </outline>
</glyph>
<glyph name="d" format="2">
  <advance width="580"/>
  <unicode hex="0064"/>
  <guideline y="650"/>
  <guideline y="530"/>
  <guideline x="438"/>
  <guideline x="499"/>
  <outline>
    <contour>
      <point x="269" y="-10" type="curve" smooth="yes"/>
      <point x="352" y="-10"/>
      <point x="404" y="24"/>
      <point x="437" y="69" type="curve"/>
      <point x="437" y="22" type="line" smooth="yes"/>
      <point x="437" y="9"/>
      <point x="446" y="0"/>
      <point x="459" y="0" type="curve" smooth="yes"/>
      <point x="476" y="0" type="line" smooth="yes"/>
      <point x="489" y="0"/>
      <point x="498" y="9"/>
      <point x="498" y="22" type="curve" smooth="yes"/>
      <point x="498" y="688" type="line" smooth="yes"/>
      <point x="498" y="701"/>
      <point x="489" y="710"/>
      <point x="476" y="710" type="curve" smooth="yes"/>
      <point x="459" y="710" type="line" smooth="yes"/>
      <point x="446" y="710"/>
      <point x="437" y="701"/>
      <point x="437" y="688" type="curve" smooth="yes"/>
      <point x="437" y="451" type="line"/>
      <point x="404" y="495"/>
      <point x="352" y="530"/>
      <point x="269" y="530" type="curve" smooth="yes"/>
      <point x="113" y="530"/>
      <point x="59" y="405"/>
      <point x="55" y="288" type="curve" smooth="yes"/>
      <point x="54" y="268"/>
      <point x="54" y="252"/>
      <point x="55" y="232" type="curve" smooth="yes"/>
      <point x="59" y="115"/>
      <point x="113" y="-10"/>
    </contour>
    <contour>
      <point x="275" y="48" type="curve" smooth="yes"/>
      <point x="158" y="48"/>
      <point x="120" y="136"/>
      <point x="116" y="232" type="curve" smooth="yes"/>
      <point x="115" y="252"/>
      <point x="115" y="268"/>
      <point x="116" y="288" type="curve" smooth="yes"/>
      <point x="120" y="384"/>
      <point x="158" y="472"/>
      <point x="275" y="472" type="curve" smooth="yes"/>
      <point x="386" y="472"/>
      <point x="435" y="382"/>
      <point x="437" y="302" type="curve" smooth="yes"/>
      <point x="438" y="282"/>
      <point x="438" y="244"/>
      <point x="437" y="224" type="curve" smooth="yes"/>
      <point x="434" y="142"/>
      <point x="389" y="48"/>
    </contour>
  </outline>
</glyph>
<glyph name="s" format="2">
  <advance width="492"/>
  <unicode hex="0073"/>
  <guideline y="265"/>
  <guideline y="139"/>
  <guideline x="250"/>
  <outline>
    <contour>
      <point x="246" y="-10" type="curve" smooth="yes"/>
      <point x="376" y="-10"/>
      <point x="445" y="59"/>
      <point x="445" y="139" type="curve" smooth="yes"/>
      <point x="445" y="214"/>
      <point x="404" y="259"/>
      <point x="276" y="288" type="curve" smooth="yes"/>
      <point x="149" y="317"/>
      <point x="123" y="340"/>
      <point x="123" y="385" type="curve" smooth="yes"/>
      <point x="123" y="435"/>
      <point x="161" y="472"/>
      <point x="241" y="472" type="curve" smooth="yes"/>
      <point x="321" y="472"/>
      <point x="345" y="443"/>
      <point x="366" y="411" type="curve" smooth="yes"/>
      <point x="371" y="403"/>
      <point x="377" y="398"/>
      <point x="388" y="398" type="curve" smooth="yes"/>
      <point x="403" y="398" type="line" smooth="yes"/>
      <point x="415" y="398"/>
      <point x="426" y="407"/>
      <point x="425" y="420" type="curve" smooth="yes"/>
      <point x="423" y="449"/>
      <point x="371" y="530"/>
      <point x="241" y="530" type="curve" smooth="yes"/>
      <point x="121" y="530"/>
      <point x="62" y="455"/>
      <point x="62" y="385" type="curve" smooth="yes"/>
      <point x="62" y="320"/>
      <point x="89" y="270"/>
      <point x="216" y="241" type="curve" smooth="yes"/>
      <point x="342" y="212"/>
      <point x="384" y="194"/>
      <point x="384" y="139" type="curve" smooth="yes"/>
      <point x="384" y="79"/>
      <point x="326" y="48"/>
      <point x="246" y="48" type="curve" smooth="yes"/>
      <point x="166" y="48"/>
      <point x="131" y="79"/>
      <point x="106" y="114" type="curve" smooth="yes"/>
      <point x="97" y="126"/>
      <point x="92" y="127"/>
      <point x="84" y="127" type="curve" smooth="yes"/>
      <point x="69" y="127" type="line" smooth="yes"/>
      <point x="60" y="127"/>
      <point x="46" y="120"/>
      <point x="47" y="105" type="curve" smooth="yes"/>
      <point x="49" y="78"/>
      <point x="106" y="-10"/>
    </contour>
  </outline>
</glyph>
<glyph name="x" format="2">
  <advance width="518"/>
  <unicode hex="0078"/>
  <guideline x="255"/>
  <outline>
    <contour>
      <point x="55" y="0" type="curve" smooth="yes"/>
      <point x="75" y="0" type="line" smooth="yes"/>
      <point x="88" y="0"/>
      <point x="94" y="8"/>
      <point x="100" y="15" type="curve" smooth="yes"/>
      <point x="258" y="217" type="line"/>
      <point x="416" y="15" type="line" smooth="yes"/>
      <point x="421" y="8"/>
      <point x="428" y="0"/>
      <point x="441" y="0" type="curve" smooth="yes"/>
      <point x="462" y="0" type="line" smooth="yes"/>
      <point x="473" y="0"/>
      <point x="482" y="9"/>
      <point x="482" y="20" type="curve" smooth="yes"/>
      <point x="482" y="25"/>
      <point x="481" y="31"/>
      <point x="474" y="40" type="curve" smooth="yes"/>
      <point x="298" y="263" type="line"/>
      <point x="467" y="480" type="line" smooth="yes"/>
      <point x="474" y="489"/>
      <point x="475" y="495"/>
      <point x="475" y="500" type="curve" smooth="yes"/>
      <point x="475" y="511"/>
      <point x="466" y="520"/>
      <point x="455" y="520" type="curve" smooth="yes"/>
      <point x="435" y="520" type="line" smooth="yes"/>
      <point x="422" y="520"/>
      <point x="416" y="511"/>
      <point x="410" y="504" type="curve" smooth="yes"/>
      <point x="260" y="312" type="line"/>
      <point x="110" y="505" type="line" smooth="yes"/>
      <point x="104" y="512"/>
      <point x="98" y="520"/>
      <point x="85" y="520" type="curve" smooth="yes"/>
      <point x="64" y="520" type="line" smooth="yes"/>
      <point x="53" y="520"/>
      <point x="44" y="511"/>
      <point x="44" y="500" type="curve" smooth="yes"/>
      <point x="44" y="495"/>
      <point x="45" y="489"/>
      <point x="52" y="480" type="curve" smooth="yes"/>
      <point x="219" y="266" type="line"/>
      <point x="43" y="40" type="line" smooth="yes"/>
      <point x="36" y="31"/>
      <point x="35" y="25"/>
      <point x="35" y="20" type="curve" smooth="yes"/>
      <point x="35" y="9"/>
      <point x="44" y="0"/>
    </contour>
  </outline>
</glyph>
<glyph name="z" format="2">
  <advance width="490"/>
  <unicode hex="007A"/>
  <guideline y="36"/>
  <guideline x="480"/>
  <guideline x="70"/>
  <outline>
    <contour>
      <point x="64" y="0" type="curve" smooth="yes"/>
      <point x="430" y="0" type="line" smooth="yes"/>
      <point x="443" y="0"/>
      <point x="452" y="9"/>
      <point x="452" y="22" type="curve" smooth="yes"/>
      <point x="452" y="36" type="line" smooth="yes"/>
      <point x="452" y="49"/>
      <point x="443" y="58"/>
      <point x="430" y="58" type="curve" smooth="yes"/>
      <point x="126" y="58" type="line"/>
      <point x="418" y="450" type="line" smooth="yes"/>
      <point x="425" y="460"/>
      <point x="432" y="470"/>
      <point x="432" y="481" type="curve" smooth="yes"/>
      <point x="432" y="498" type="line" smooth="yes"/>
      <point x="432" y="511"/>
      <point x="423" y="520"/>
      <point x="410" y="520" type="curve" smooth="yes"/>
      <point x="74" y="520" type="line" smooth="yes"/>
      <point x="61" y="520"/>
      <point x="52" y="511"/>
      <point x="52" y="498" type="curve" smooth="yes"/>
      <point x="52" y="484" type="line" smooth="yes"/>
      <point x="52" y="471"/>
      <point x="61" y="462"/>
      <point x="74" y="462" type="curve" smooth="yes"/>
      <point x="350" y="462" type="line"/>
      <point x="56" y="70" type="line" smooth="yes"/>
      <point x="49" y="60"/>
      <point x="42" y="50"/>
      <point x="42" y="39" type="curve" smooth="yes"/>
      <point x="42" y="22" type="line" smooth="yes"/>
      <point x="42" y="9"/>
      <point x="51" y="0"/>
    </contour>
  </outline>
</glyph>
<glyph name="periodcentered" format="2">
  <advance width="330"/>
  <unicode hex="00B7"/>
  <guideline y="300"/>
  <outline>
    <contour>
      <point x="165" y="200" type="curve" smooth="yes"/>
      <point x="220" y="200"/>
      <point x="265" y="245"/>
      <point x="265" y="300" type="curve" smooth="yes"/>
      <point x="265" y="355"/>
      <point x="220" y="400"/>
      <point x="165" y="400" type="curve" smooth="yes"/>
      <point x="110" y="400"/>
      <point x="65" y="355"/>
      <point x="65" y="300" type="curve" smooth="yes"/>
      <point x="65" y="245"/>
      <point x="110" y="200"/>
    </contour>
  </outline>
</glyph>
<glyph name="lslash" format="2">
  <advance width="247"/>
  <unicode hex="0142"/>
  <guideline y="355"/>
  <guideline x="231"/>
  <guideline x="100"/>
  <guideline x="30"/>
  <outline>
    <contour>
      <point x="116" y="0" type="curve" smooth="yes"/>
      <point x="133" y="0" type="line" smooth="yes"/>
      <point x="146" y="0"/>
      <point x="155" y="9"/>
      <point x="155" y="22" type="curve" smooth="yes"/>
      <point x="155" y="341" type="line"/>
      <point x="203" y="360" type="line" smooth="yes"/>
      <point x="219" y="366"/>
      <point x="225" y="370"/>
      <point x="225" y="385" type="curve" smooth="yes"/>
      <point x="225" y="404" type="line" smooth="yes"/>
      <point x="225" y="416"/>
      <point x="217" y="422"/>
      <point x="206" y="422" type="curve" smooth="yes"/>
      <point x="202" y="422"/>
      <point x="198" y="421"/>
      <point x="193" y="419" type="curve" smooth="yes"/>
      <point x="155" y="404" type="line"/>
      <point x="155" y="688" type="line" smooth="yes"/>
      <point x="155" y="701"/>
      <point x="146" y="710"/>
      <point x="133" y="710" type="curve" smooth="yes"/>
      <point x="116" y="710" type="line" smooth="yes"/>
      <point x="103" y="710"/>
      <point x="94" y="701"/>
      <point x="94" y="688" type="curve" smooth="yes"/>
      <point x="94" y="381" type="line"/>
      <point x="46" y="363" type="line" smooth="yes"/>
      <point x="30" y="357"/>
      <point x="24" y="353"/>
      <point x="24" y="338" type="curve" smooth="yes"/>
      <point x="24" y="319" type="line" smooth="yes"/>
      <point x="24" y="307"/>
      <point x="32" y="301"/>
      <point x="43" y="301" type="curve" smooth="yes"/>
      <point x="47" y="301"/>
      <point x="51" y="302"/>
      <point x="56" y="304" type="curve" smooth="yes"/>
      <point x="94" y="318" type="line"/>
      <point x="94" y="22" type="line" smooth="yes"/>
      <point x="94" y="9"/>
      <point x="103" y="0"/>
    </contour>
  </outline>
</glyph>
<glyph name="OE" format="2">
  <advance width="900"/>
  <unicode hex="0152"/>
  <guideline x="842"/>
  <guideline x="66"/>
  <guideline x="439"/>
  <guideline x="502"/>
  <outline>
    <contour>
      <point x="343" y="0" type="curve"/>
      <point x="823" y="0" type="line"/>
      <point x="837" y="0"/>
      <point x="846" y="9"/>
      <point x="846" y="22" type="curve"/>
      <point x="846" y="37" type="line"/>
      <point x="846" y="51"/>
      <point x="837" y="60"/>
      <point x="823" y="60" type="curve"/>
      <point x="506" y="60" type="line"/>
      <point x="506" y="325" type="line"/>
      <point x="793" y="325" type="line"/>
      <point x="807" y="325"/>
      <point x="816" y="334"/>
      <point x="816" y="347" type="curve"/>
      <point x="816" y="362" type="line"/>
      <point x="816" y="376"/>
      <point x="807" y="385"/>
      <point x="793" y="385" type="curve"/>
      <point x="506" y="385" type="line"/>
      <point x="506" y="640" type="line"/>
      <point x="815" y="640" type="line"/>
      <point x="829" y="640"/>
      <point x="838" y="649"/>
      <point x="838" y="662" type="curve"/>
      <point x="838" y="677" type="line"/>
      <point x="838" y="691"/>
      <point x="829" y="700"/>
      <point x="815" y="700" type="curve"/>
      <point x="348" y="700" type="line"/>
      <point x="136" y="700"/>
      <point x="73" y="604"/>
      <point x="70" y="430" type="curve" smooth="yes"/>
      <point x="69" y="370"/>
      <point x="69" y="331"/>
      <point x="70" y="271" type="curve" smooth="yes"/>
      <point x="74" y="87"/>
      <point x="137" y="0"/>
    </contour>
    <contour>
      <point x="348" y="60" type="line"/>
      <point x="189" y="60"/>
      <point x="136" y="120"/>
      <point x="133" y="276" type="curve" smooth="yes"/>
      <point x="132" y="336"/>
      <point x="132" y="365"/>
      <point x="133" y="425" type="curve" smooth="yes"/>
      <point x="136" y="571"/>
      <point x="193" y="640"/>
      <point x="353" y="640" type="curve"/>
      <point x="443" y="640" type="line"/>
      <point x="443" y="60" type="line"/>
    </contour>
  </outline>
</glyph>
<glyph name="tbar" format="2">
  <advance width="367"/>
  <unicode hex="0167"/>
  <guideline x="342"/>
  <outline>
    <contour>
      <point x="261" y="0" type="curve" smooth="yes"/>
      <point x="320" y="0" type="line" smooth="yes"/>
      <point x="333" y="0"/>
      <point x="342" y="9"/>
      <point x="342" y="22" type="curve" smooth="yes"/>
      <point x="342" y="36" type="line" smooth="yes"/>
      <point x="342" y="49"/>
      <point x="333" y="58"/>
      <point x="320" y="58" type="curve" smooth="yes"/>
      <point x="266" y="58" type="line" smooth="yes"/>
      <point x="206" y="58"/>
      <point x="186" y="100"/>
      <point x="186" y="171" type="curve" smooth="yes"/>
      <point x="186" y="304" type="line"/>
      <point x="310" y="304" type="line" smooth="yes"/>
      <point x="323" y="304"/>
      <point x="332" y="313"/>
      <point x="332" y="326" type="curve" smooth="yes"/>
      <point x="332" y="340" type="line" smooth="yes"/>
      <point x="332" y="353"/>
      <point x="323" y="362"/>
      <point x="310" y="362" type="curve" smooth="yes"/>
      <point x="186" y="362" type="line"/>
      <point x="186" y="462" type="line"/>
      <point x="310" y="462" type="line" smooth="yes"/>
      <point x="323" y="462"/>
      <point x="332" y="471"/>
      <point x="332" y="484" type="curve" smooth="yes"/>
      <point x="332" y="498" type="line" smooth="yes"/>
      <point x="332" y="511"/>
      <point x="323" y="520"/>
      <point x="310" y="520" type="curve" smooth="yes"/>
      <point x="186" y="520" type="line"/>
      <point x="186" y="688" type="line" smooth="yes"/>
      <point x="186" y="701"/>
      <point x="177" y="710"/>
      <point x="164" y="710" type="curve" smooth="yes"/>
      <point x="147" y="710" type="line" smooth="yes"/>
      <point x="134" y="710"/>
      <point x="125" y="701"/>
      <point x="125" y="688" type="curve" smooth="yes"/>
      <point x="125" y="520" type="line"/>
      <point x="47" y="520" type="line" smooth="yes"/>
      <point x="34" y="520"/>
      <point x="25" y="511"/>
      <point x="25" y="498" type="curve" smooth="yes"/>
      <point x="25" y="484" type="line" smooth="yes"/>
      <point x="25" y="471"/>
      <point x="34" y="462"/>
      <point x="47" y="462" type="curve" smooth="yes"/>
      <point x="125" y="462" type="line"/>
      <point x="125" y="362" type="line"/>
      <point x="47" y="362" type="line" smooth="yes"/>
      <point x="34" y="362"/>
      <point x="25" y="353"/>
      <point x="25" y="340" type="curve" smooth="yes"/>
      <point x="25" y="326" type="line" smooth="yes"/>
      <point x="25" y="313"/>
      <point x="34" y="304"/>
      <point x="47" y="304" type="curve" smooth="yes"/>
      <point x="125" y="304" type="line"/>
      <point x="125" y="167" type="line" smooth="yes"/>
      <point x="125" y="73"/>
      <point x="156" y="0"/>
    </contour>
  </outline>
</glyph>
<glyph name="breve" format="2">
  <advance width="370"/>
  <unicode hex="02D8"/>
  <guideline y="591"/>
  <guideline x="300"/>
  <guideline x="185"/>
  <outline>
    <contour>
      <point x="185" y="590" type="curve" smooth="yes"/>
      <point x="273" y="590"/>
      <point x="295" y="649"/>
      <point x="295" y="706" type="curve" smooth="yes"/>
      <point x="295" y="716"/>
      <point x="288" y="725"/>
      <point x="276" y="725" type="curve" smooth="yes"/>
      <point x="261" y="725" type="line" smooth="yes"/>
      <point x="249" y="725"/>
      <point x="242" y="716"/>
      <point x="242" y="706" type="curve" smooth="yes"/>
      <point x="242" y="674"/>
      <point x="231" y="640"/>
      <point x="185" y="640" type="curve" smooth="yes"/>
      <point x="139" y="640"/>
      <point x="128" y="674"/>
      <point x="128" y="706" type="curve" smooth="yes"/>
      <point x="128" y="716"/>
      <point x="121" y="725"/>
      <point x="109" y="725" type="curve" smooth="yes"/>
      <point x="94" y="725" type="line" smooth="yes"/>
      <point x="82" y="725"/>
      <point x="75" y="716"/>
      <point x="75" y="706" type="curve" smooth="yes"/>
      <point x="75" y="649"/>
      <point x="97" y="590"/>
    </contour>
  </outline>
</glyph>
<glyph name="dotaccent" format="2">
  <advance width="233"/>
  <unicode hex="02D9"/>
  <outline>
    <contour>
      <point x="92" y="617" type="curve" smooth="yes"/>
      <point x="140" y="617" type="line" smooth="yes"/>
      <point x="153" y="617"/>
      <point x="163" y="626"/>
      <point x="163" y="639" type="curve" smooth="yes"/>
      <point x="163" y="687" type="line" smooth="yes"/>
      <point x="163" y="700"/>
      <point x="153" y="710"/>
      <point x="140" y="710" type="curve" smooth="yes"/>
      <point x="92" y="710" type="line" smooth="yes"/>
      <point x="79" y="710"/>
      <point x="70" y="700"/>
      <point x="70" y="687" type="curve" smooth="yes"/>
      <point x="70" y="639" type="line" smooth="yes"/>
      <point x="70" y="626"/>
      <point x="79" y="617"/>
    </contour>
  </outline>
</glyph>
<glyph name="ogonek" format="2">
  <advance width="313"/>
  <unicode hex="02DB"/>
  <guideline y="-220"/>
  <outline>
    <contour>
      <point x="202" y="-220" type="curve" smooth="yes"/>
      <point x="221" y="-220" type="line" smooth="yes"/>
      <point x="234" y="-220"/>
      <point x="243" y="-211"/>
      <point x="243" y="-198" type="curve" smooth="yes"/>
      <point x="243" y="-185" type="line" smooth="yes"/>
      <point x="243" y="-172"/>
      <point x="234" y="-163"/>
      <point x="221" y="-163" type="curve" smooth="yes"/>
      <point x="206" y="-163" type="line" smooth="yes"/>
      <point x="162" y="-163"/>
      <point x="130" y="-133"/>
      <point x="130" y="-82" type="curve" smooth="yes"/>
      <point x="130" y="-31"/>
      <point x="162" y="0"/>
      <point x="206" y="0" type="curve" smooth="yes"/>
      <point x="221" y="0" type="line" smooth="yes"/>
      <point x="234" y="0"/>
      <point x="243" y="9"/>
      <point x="243" y="22" type="curve" smooth="yes"/>
      <point x="243" y="35" type="line" smooth="yes"/>
      <point x="243" y="48"/>
      <point x="234" y="57"/>
      <point x="221" y="57" type="curve" smooth="yes"/>
      <point x="202" y="57" type="line" smooth="yes"/>
      <point x="121" y="57"/>
      <point x="70" y="3"/>
      <point x="70" y="-82" type="curve" smooth="yes"/>
      <point x="70" y="-167"/>
      <point x="121" y="-220"/>
    </contour>
  </outline>
</glyph>
<glyph name="hungarumlaut" format="2">
  <advance width="416"/>
  <unicode hex="02DD"/>
  <guideline y="595"/>
  <outline>
    <contour>
      <point x="229" y="595" type="curve" smooth="yes"/>
      <point x="239" y="595" type="line" smooth="yes"/>
      <point x="252" y="595"/>
      <point x="261" y="600"/>
      <point x="269" y="609" type="curve" smooth="yes"/>
      <point x="340" y="693" type="line" smooth="yes"/>
      <point x="344" y="697"/>
      <point x="346" y="701"/>
      <point x="346" y="706" type="curve" smooth="yes"/>
      <point x="346" y="718"/>
      <point x="338" y="725"/>
      <point x="326" y="725" type="curve" smooth="yes"/>
      <point x="291" y="725" type="line" smooth="yes"/>
      <point x="270" y="725"/>
      <point x="260" y="719"/>
      <point x="254" y="706" type="curve" smooth="yes"/>
      <point x="218" y="626" type="line" smooth="yes"/>
      <point x="216" y="622"/>
      <point x="213" y="616"/>
      <point x="213" y="611" type="curve" smooth="yes"/>
      <point x="213" y="601"/>
      <point x="219" y="595"/>
    </contour>
    <contour>
      <point x="86" y="595" type="curve" smooth="yes"/>
      <point x="96" y="595" type="line" smooth="yes"/>
      <point x="109" y="595"/>
      <point x="118" y="600"/>
      <point x="126" y="609" type="curve" smooth="yes"/>
      <point x="197" y="693" type="line" smooth="yes"/>
      <point x="201" y="697"/>
      <point x="203" y="701"/>
      <point x="203" y="706" type="curve" smooth="yes"/>
      <point x="203" y="718"/>
      <point x="195" y="725"/>
      <point x="183" y="725" type="curve" smooth="yes"/>
      <point x="148" y="725" type="line" smooth="yes"/>
      <point x="127" y="725"/>
      <point x="117" y="719"/>
      <point x="111" y="706" type="curve" smooth="yes"/>
      <point x="75" y="626" type="line" smooth="yes"/>
      <point x="73" y="622"/>
      <point x="70" y="616"/>
      <point x="70" y="611" type="curve" smooth="yes"/>
      <point x="70" y="601"/>
      <point x="76" y="595"/>
    </contour>
  </outline>
</glyph>
<glyph name="Dje-cy" format="2">
  <advance width="688"/>
  <unicode hex="0402"/>
  <guideline x="50"/>
  <guideline x="413"/>
  <guideline x="485"/>
  <outline>
    <contour>
      <point x="210" y="0" type="curve" smooth="yes"/>
      <point x="228" y="0" type="line" smooth="yes"/>
      <point x="241" y="0"/>
      <point x="250" y="9"/>
      <point x="250" y="22" type="curve" smooth="yes"/>
      <point x="250" y="278" type="line" smooth="yes"/>
      <point x="250" y="379"/>
      <point x="362" y="398"/>
      <point x="430" y="398" type="curve" smooth="yes"/>
      <point x="538" y="398"/>
      <point x="585" y="351"/>
      <point x="585" y="251" type="curve" smooth="yes"/>
      <point x="585" y="218" type="line" smooth="yes"/>
      <point x="585" y="130"/>
      <point x="549" y="60"/>
      <point x="409" y="60" type="curve" smooth="yes"/>
      <point x="405" y="60" type="line" smooth="yes"/>
      <point x="392" y="60"/>
      <point x="383" y="51"/>
      <point x="383" y="38" type="curve" smooth="yes"/>
      <point x="383" y="22" type="line" smooth="yes"/>
      <point x="383" y="9"/>
      <point x="392" y="0"/>
      <point x="405" y="0" type="curve" smooth="yes"/>
      <point x="409" y="0" type="line" smooth="yes"/>
      <point x="582" y="0"/>
      <point x="648" y="96"/>
      <point x="648" y="218" type="curve" smooth="yes"/>
      <point x="648" y="256" type="line" smooth="yes"/>
      <point x="648" y="386"/>
      <point x="576" y="458"/>
      <point x="438" y="458" type="curve" smooth="yes"/>
      <point x="373" y="458"/>
      <point x="280" y="442"/>
      <point x="250" y="393" type="curve"/>
      <point x="250" y="640" type="line"/>
      <point x="477" y="640" type="line" smooth="yes"/>
      <point x="491" y="640"/>
      <point x="500" y="649"/>
      <point x="500" y="662" type="curve" smooth="yes"/>
      <point x="500" y="677" type="line" smooth="yes"/>
      <point x="500" y="691"/>
      <point x="491" y="700"/>
      <point x="477" y="700" type="curve" smooth="yes"/>
      <point x="49" y="700" type="line" smooth="yes"/>
      <point x="36" y="700"/>
      <point x="27" y="691"/>
      <point x="27" y="677" type="curve" smooth="yes"/>
      <point x="27" y="662" type="line" smooth="yes"/>
      <point x="27" y="649"/>
      <point x="36" y="640"/>
      <point x="49" y="640" type="curve" smooth="yes"/>
      <point x="187" y="640" type="line"/>
      <point x="187" y="22" type="line" smooth="yes"/>
      <point x="187" y="9"/>
      <point x="196" y="0"/>
    </contour>
  </outline>
</glyph>
<glyph name="Lje-cy" format="2">
  <advance width="949"/>
  <unicode hex="0409"/>
  <outline>
    <contour>
      <point x="43" y="1" type="curve" smooth="yes"/>
      <point x="176" y="11"/>
      <point x="248" y="128"/>
      <point x="248" y="449" type="curve" smooth="yes"/>
      <point x="248" y="640" type="line"/>
      <point x="493" y="640" type="line"/>
      <point x="493" y="22" type="line" smooth="yes"/>
      <point x="493" y="9"/>
      <point x="502" y="0"/>
      <point x="515" y="0" type="curve" smooth="yes"/>
      <point x="699" y="0" type="line" smooth="yes"/>
      <point x="845" y="0"/>
      <point x="909" y="111"/>
      <point x="909" y="214" type="curve" smooth="yes"/>
      <point x="909" y="350"/>
      <point x="833" y="423"/>
      <point x="699" y="423" type="curve" smooth="yes"/>
      <point x="556" y="423" type="line"/>
      <point x="556" y="678" type="line" smooth="yes"/>
      <point x="556" y="691"/>
      <point x="547" y="700"/>
      <point x="534" y="700" type="curve" smooth="yes"/>
      <point x="207" y="700" type="line" smooth="yes"/>
      <point x="194" y="700"/>
      <point x="185" y="691"/>
      <point x="185" y="678" type="curve" smooth="yes"/>
      <point x="185" y="457" type="line" smooth="yes"/>
      <point x="185" y="168"/>
      <point x="126" y="76"/>
      <point x="40" y="64" type="curve" smooth="yes"/>
      <point x="28" y="63"/>
      <point x="20" y="54"/>
      <point x="20" y="42" type="curve" smooth="yes"/>
      <point x="20" y="24" type="line" smooth="yes"/>
      <point x="20" y="11"/>
      <point x="30" y="0"/>
    </contour>
    <contour>
      <point x="556" y="60" type="line"/>
      <point x="556" y="363" type="line"/>
      <point x="689" y="363" type="line" smooth="yes"/>
      <point x="796" y="363"/>
      <point x="846" y="314"/>
      <point x="846" y="217" type="curve" smooth="yes"/>
      <point x="846" y="122"/>
      <point x="788" y="60"/>
      <point x="689" y="60" type="curve" smooth="yes"/>
    </contour>
  </outline>
</glyph>
<glyph name="El-cy" format="2">
  <advance width="680"/>
  <unicode hex="041B"/>
  <guideline x="34" y="-10" angle="0"/>
  <outline>
    <contour>
      <point x="545" y="0" type="curve" smooth="yes"/>
      <point x="563" y="0" type="line" smooth="yes"/>
      <point x="577" y="0"/>
      <point x="586" y="9"/>
      <point x="586" y="22" type="curve" smooth="yes"/>
      <point x="586" y="677" type="line" smooth="yes"/>
      <point x="586" y="691"/>
      <point x="577" y="700"/>
      <point x="563" y="700" type="curve" smooth="yes"/>
      <point x="207" y="700" type="line" smooth="yes"/>
      <point x="194" y="700"/>
      <point x="185" y="691"/>
      <point x="185" y="678" type="curve" smooth="yes"/>
      <point x="185" y="457" type="line" smooth="yes"/>
      <point x="185" y="168"/>
      <point x="126" y="76"/>
      <point x="40" y="64" type="curve"/>
      <point x="28" y="63"/>
      <point x="20" y="54"/>
      <point x="20" y="42" type="curve" smooth="yes"/>
      <point x="20" y="24" type="line" smooth="yes"/>
      <point x="20" y="11"/>
      <point x="30" y="0"/>
      <point x="43" y="1" type="curve" smooth="yes"/>
      <point x="176" y="12"/>
      <point x="248" y="128"/>
      <point x="248" y="449" type="curve" smooth="yes"/>
      <point x="248" y="640" type="line"/>
      <point x="523" y="640" type="line"/>
      <point x="523" y="22" type="line" smooth="yes"/>
      <point x="523" y="9"/>
      <point x="532" y="0"/>
    </contour>
  </outline>
</glyph>
<glyph name="Ef-cy" format="2">
  <advance width="825"/>
  <unicode hex="0424"/>
  <guideline x="32" y="183" angle="0"/>
  <guideline x="32" y="350" angle="0"/>
  <guideline x="32" y="535" angle="0"/>
  <guideline x="32" y="595" angle="0"/>
  <guideline x="82"/>
  <guideline x="181" y="332" angle="0"/>
  <outline>
    <contour>
      <point x="403" y="-32" type="curve" smooth="yes"/>
      <point x="422" y="-32" type="line" smooth="yes"/>
      <point x="435" y="-32"/>
      <point x="444" y="-23"/>
      <point x="444" y="-10" type="curve" smooth="yes"/>
      <point x="444" y="74" type="line"/>
      <point x="642" y="74"/>
      <point x="742" y="156"/>
      <point x="758" y="330" type="curve" smooth="yes"/>
      <point x="760" y="354"/>
      <point x="759" y="374"/>
      <point x="758" y="398" type="curve" smooth="yes"/>
      <point x="750" y="571"/>
      <point x="630" y="654"/>
      <point x="444" y="654" type="curve"/>
      <point x="444" y="728" type="line" smooth="yes"/>
      <point x="444" y="741"/>
      <point x="435" y="750"/>
      <point x="422" y="750" type="curve" smooth="yes"/>
      <point x="403" y="750" type="line" smooth="yes"/>
      <point x="390" y="750"/>
      <point x="381" y="741"/>
      <point x="381" y="728" type="curve" smooth="yes"/>
      <point x="381" y="654" type="line"/>
      <point x="195" y="654"/>
      <point x="76" y="571"/>
      <point x="67" y="398" type="curve" smooth="yes"/>
      <point x="66" y="374"/>
      <point x="65" y="354"/>
      <point x="67" y="330" type="curve" smooth="yes"/>
      <point x="85" y="156"/>
      <point x="183" y="74"/>
      <point x="381" y="74" type="curve"/>
      <point x="381" y="-10" type="line" smooth="yes"/>
      <point x="381" y="-23"/>
      <point x="390" y="-32"/>
    </contour>
    <contour>
      <point x="381" y="134" type="line"/>
      <point x="229" y="134"/>
      <point x="138" y="193"/>
      <point x="130" y="335" type="curve" smooth="yes"/>
      <point x="129" y="357"/>
      <point x="128" y="371"/>
      <point x="130" y="393" type="curve" smooth="yes"/>
      <point x="143" y="535"/>
      <point x="230" y="594"/>
      <point x="381" y="594" type="curve"/>
    </contour>
    <contour>
      <point x="444" y="134" type="curve"/>
      <point x="444" y="594" type="line"/>
      <point x="595" y="594"/>
      <point x="680" y="535"/>
      <point x="695" y="393" type="curve" smooth="yes"/>
      <point x="697" y="371"/>
      <point x="696" y="357"/>
      <point x="695" y="335" type="curve" smooth="yes"/>
      <point x="688" y="193"/>
      <point x="596" y="134"/>
    </contour>
  </outline>
</glyph>
<glyph name="el-cy" format="2">
  <advance width="561"/>
  <unicode hex="043B"/>
  <guideline x="46"/>
  <outline>
    <contour>
      <point x="48" y="0" type="curve" smooth="yes"/>
      <point x="149" y="0"/>
      <point x="211" y="108"/>
      <point x="211" y="368" type="curve" smooth="yes"/>
      <point x="211" y="462" type="line"/>
      <point x="419" y="462" type="line"/>
      <point x="419" y="22" type="line" smooth="yes"/>
      <point x="419" y="9"/>
      <point x="428" y="0"/>
      <point x="441" y="0" type="curve" smooth="yes"/>
      <point x="458" y="0" type="line" smooth="yes"/>
      <point x="471" y="0"/>
      <point x="480" y="9"/>
      <point x="480" y="22" type="curve" smooth="yes"/>
      <point x="480" y="498" type="line" smooth="yes"/>
      <point x="480" y="511"/>
      <point x="471" y="520"/>
      <point x="458" y="520" type="curve" smooth="yes"/>
      <point x="172" y="520" type="line" smooth="yes"/>
      <point x="159" y="520"/>
      <point x="150" y="511"/>
      <point x="150" y="498" type="curve" smooth="yes"/>
      <point x="150" y="375" type="line" smooth="yes"/>
      <point x="150" y="142"/>
      <point x="109" y="60"/>
      <point x="45" y="60" type="curve" smooth="yes"/>
      <point x="33" y="60"/>
      <point x="25" y="51"/>
      <point x="25" y="39" type="curve" smooth="yes"/>
      <point x="25" y="23" type="line" smooth="yes"/>
      <point x="25" y="10"/>
      <point x="35" y="0"/>
    </contour>
  </outline>
</glyph>
<glyph name="yeru-cy" format="2">
  <advance width="659"/>
  <unicode hex="044B"/>
  <anchor x="340" y="520" name="top"/>
  <outline>
    <contour>
      <point x="103" y="0" type="curve" smooth="yes"/>
      <point x="237" y="0" type="line" smooth="yes"/>
      <point x="377" y="0"/>
      <point x="441" y="51"/>
      <point x="441" y="169" type="curve" smooth="yes"/>
      <point x="441" y="277"/>
      <point x="388" y="346"/>
      <point x="252" y="346" type="curve" smooth="yes"/>
      <point x="142" y="346" type="line"/>
      <point x="142" y="498" type="line"/>
      <point x="142" y="511"/>
      <point x="133" y="520"/>
      <point x="120" y="520" type="curve" smooth="yes"/>
      <point x="103" y="520" type="line" smooth="yes"/>
      <point x="90" y="520"/>
      <point x="81" y="511"/>
      <point x="81" y="498" type="curve" smooth="yes"/>
      <point x="81" y="22" type="line" smooth="yes"/>
      <point x="81" y="9"/>
      <point x="90" y="0"/>
    </contour>
    <contour>
      <point x="142" y="58" type="line"/>
      <point x="142" y="288" type="line"/>
      <point x="246" y="288" type="line" smooth="yes"/>
      <point x="342" y="288"/>
      <point x="380" y="249"/>
      <point x="380" y="169" type="curve" smooth="yes"/>
      <point x="380" y="86"/>
      <point x="339" y="58"/>
      <point x="246" y="58" type="curve" smooth="yes"/>
    </contour>
    <component base="idotless" xOffset="436"/>
  </outline>
</glyph>
<glyph name="softsign-cy" format="2">
  <advance width="476"/>
  <unicode hex="044C"/>
  <guideline x="70"/>
  <guideline x="142" y="542" angle="90"/>
  <outline>
    <contour>
      <point x="103" y="0" type="curve" smooth="yes"/>
      <point x="247" y="0" type="line" smooth="yes"/>
      <point x="387" y="0"/>
      <point x="451" y="51"/>
      <point x="451" y="169" type="curve" smooth="yes"/>
      <point x="451" y="277"/>
      <point x="398" y="346"/>
      <point x="262" y="346" type="curve" smooth="yes"/>
      <point x="142" y="346" type="line"/>
      <point x="142" y="498" type="line"/>
      <point x="142" y="511"/>
      <point x="133" y="520"/>
      <point x="120" y="520" type="curve" smooth="yes"/>
      <point x="103" y="520" type="line" smooth="yes"/>
      <point x="90" y="520"/>
      <point x="81" y="511"/>
      <point x="81" y="498" type="curve" smooth="yes"/>
      <point x="81" y="22" type="line" smooth="yes"/>
      <point x="81" y="9"/>
      <point x="90" y="0"/>
    </contour>
    <contour>
      <point x="142" y="58" type="line"/>
      <point x="142" y="288" type="line"/>
      <point x="256" y="288" type="line" smooth="yes"/>
      <point x="352" y="288"/>
      <point x="390" y="249"/>
      <point x="390" y="169" type="curve" smooth="yes"/>
      <point x="390" y="86"/>
      <point x="349" y="58"/>
      <point x="256" y="58" type="curve" smooth="yes"/>
    </contour>
  </outline>
</glyph>
<glyph name="nje-cy" format="2">
  <advance width="759"/>
  <unicode hex="045A"/>
  <guideline x="278" y="237" angle="180"/>
  <guideline x="278" y="295" angle="0"/>
  <outline>
    <contour>
      <point x="103" y="0" type="curve" smooth="yes"/>
      <point x="120" y="0" type="line" smooth="yes"/>
      <point x="133" y="0"/>
      <point x="142" y="9"/>
      <point x="142" y="22" type="curve" smooth="yes"/>
      <point x="142" y="237" type="line"/>
      <point x="414" y="237" type="line"/>
      <point x="414" y="22" type="line" smooth="yes"/>
      <point x="414" y="9"/>
      <point x="423" y="0"/>
      <point x="436" y="0" type="curve" smooth="yes"/>
      <point x="530" y="0" type="line" smooth="yes"/>
      <point x="670" y="0"/>
      <point x="734" y="51"/>
      <point x="734" y="169" type="curve" smooth="yes"/>
      <point x="734" y="277"/>
      <point x="681" y="346"/>
      <point x="545" y="346" type="curve" smooth="yes"/>
      <point x="475" y="346" type="line"/>
      <point x="475" y="498" type="line" smooth="yes"/>
      <point x="475" y="511"/>
      <point x="466" y="520"/>
      <point x="453" y="520" type="curve" smooth="yes"/>
      <point x="436" y="520" type="line" smooth="yes"/>
      <point x="423" y="520"/>
      <point x="414" y="511"/>
      <point x="414" y="498" type="curve" smooth="yes"/>
      <point x="414" y="295" type="line"/>
      <point x="142" y="295" type="line"/>
      <point x="142" y="498" type="line" smooth="yes"/>
      <point x="142" y="511"/>
      <point x="133" y="520"/>
      <point x="120" y="520" type="curve" smooth="yes"/>
      <point x="103" y="520" type="line" smooth="yes"/>
      <point x="90" y="520"/>
      <point x="81" y="511"/>
      <point x="81" y="498" type="curve" smooth="yes"/>
      <point x="81" y="22" type="line" smooth="yes"/>
      <point x="81" y="9"/>
      <point x="90" y="0"/>
    </contour>
    <contour>
      <point x="475" y="58" type="line"/>
      <point x="475" y="288" type="line"/>
      <point x="539" y="288" type="line" smooth="yes"/>
      <point x="635" y="288"/>
      <point x="673" y="249"/>
      <point x="673" y="169" type="curve" smooth="yes"/>
      <point x="673" y="86"/>
      <point x="632" y="58"/>
      <point x="539" y="58" type="curve" smooth="yes"/>
    </contour>
  </outline>
</glyph>
<glyph name="Yat-cy" format="2">
  <advance width="640"/>
  <unicode hex="0462"/>
  <outline>
    <contour>
      <point x="49" y="530" type="curve"/>
      <point x="417" y="530" type="line"/>
      <point x="431" y="530"/>
      <point x="440" y="539"/>
      <point x="440" y="552" type="curve" smooth="yes"/>
      <point x="440" y="567" type="line" smooth="yes"/>
      <point x="440" y="581"/>
      <point x="431" y="590"/>
      <point x="417" y="590" type="curve" smooth="yes"/>
      <point x="49" y="590" type="line" smooth="yes"/>
      <point x="36" y="590"/>
      <point x="27" y="581"/>
      <point x="27" y="567" type="curve" smooth="yes"/>
      <point x="27" y="552" type="line" smooth="yes"/>
      <point x="27" y="539"/>
      <point x="36" y="530"/>
    </contour>
    <contour>
      <point x="176" y="0" type="curve" smooth="yes"/>
      <point x="390" y="0" type="line" smooth="yes"/>
      <point x="536" y="0"/>
      <point x="600" y="111"/>
      <point x="600" y="214" type="curve" smooth="yes"/>
      <point x="600" y="350"/>
      <point x="524" y="423"/>
      <point x="390" y="423" type="curve" smooth="yes"/>
      <point x="217" y="423" type="line"/>
      <point x="217" y="678" type="line" smooth="yes"/>
      <point x="217" y="691"/>
      <point x="208" y="700"/>
      <point x="194" y="700" type="curve" smooth="yes"/>
      <point x="176" y="700" type="line"/>
      <point x="163" y="700"/>
      <point x="154" y="691"/>
      <point x="154" y="678" type="curve" smooth="yes"/>
      <point x="154" y="22" type="line" smooth="yes"/>
      <point x="154" y="9"/>
      <point x="163" y="0"/>
    </contour>
    <contour>
      <point x="217" y="60" type="line"/>
      <point x="217" y="363" type="line"/>
      <point x="380" y="363" type="line"/>
      <point x="487" y="363"/>
      <point x="537" y="314"/>
      <point x="537" y="217" type="curve" smooth="yes"/>
      <point x="537" y="122"/>
      <point x="479" y="60"/>
      <point x="380" y="60" type="curve" smooth="yes"/>
    </contour>
  </outline>
</glyph>
<glyph name="Ghemiddlehook-cy" format="2">
  <advance width="593"/>
  <unicode hex="0494"/>
  <outline>
    <contour>
      <point x="116" y="0" type="curve" smooth="yes"/>
      <point x="134" y="0" type="line" smooth="yes"/>
      <point x="148" y="0"/>
      <point x="157" y="9"/>
      <point x="157" y="22" type="curve" smooth="yes"/>
      <point x="157" y="640" type="line"/>
      <point x="482" y="640" type="line" smooth="yes"/>
      <point x="496" y="640"/>
      <point x="505" y="649"/>
      <point x="505" y="662" type="curve" smooth="yes"/>
      <point x="505" y="677" type="line" smooth="yes"/>
      <point x="505" y="691"/>
      <point x="496" y="700"/>
      <point x="482" y="700" type="curve" smooth="yes"/>
      <point x="116" y="700" type="line" smooth="yes"/>
      <point x="103" y="700"/>
      <point x="94" y="691"/>
      <point x="94" y="677" type="curve" smooth="yes"/>
      <point x="94" y="22" type="line" smooth="yes"/>
      <point x="94" y="9"/>
      <point x="103" y="0"/>
    </contour>
    <contour>
      <point x="152" y="376" type="curve"/>
      <point x="157" y="252" type="line"/>
      <point x="157" y="371"/>
      <point x="263" y="393"/>
      <point x="335" y="393" type="curve" smooth="yes"/>
      <point x="443" y="393"/>
      <point x="490" y="346"/>
      <point x="490" y="246" type="curve" smooth="yes"/>
      <point x="490" y="143" type="line" smooth="yes"/>
      <point x="490" y="55"/>
      <point x="454" y="-15"/>
      <point x="314" y="-15" type="curve" smooth="yes"/>
      <point x="310" y="-15" type="line" smooth="yes"/>
      <point x="297" y="-15"/>
      <point x="288" y="-24"/>
      <point x="288" y="-37" type="curve" smooth="yes"/>
      <point x="288" y="-53" type="line" smooth="yes"/>
      <point x="288" y="-66"/>
      <point x="297" y="-75"/>
      <point x="310" y="-75" type="curve" smooth="yes"/>
      <point x="314" y="-75" type="line" smooth="yes"/>
      <point x="487" y="-75"/>
      <point x="553" y="21"/>
      <point x="553" y="143" type="curve" smooth="yes"/>
      <point x="553" y="251" type="line" smooth="yes"/>
      <point x="553" y="381"/>
      <point x="481" y="453"/>
      <point x="343" y="453" type="curve" smooth="yes"/>
      <point x="253" y="453"/>
      <point x="188" y="427"/>
    </contour>
  </outline>
</glyph>
<glyph name="ghemiddlehook-cy" format="2">
  <advance width="482"/>
  <unicode hex="0495"/>
  <outline>
    <contour>
      <point x="103" y="0" type="curve" smooth="yes"/>
      <point x="120" y="0" type="line" smooth="yes"/>
      <point x="133" y="0"/>
      <point x="142" y="9"/>
      <point x="142" y="22" type="curve" smooth="yes"/>
      <point x="142" y="462" type="line"/>
      <point x="386" y="462" type="line" smooth="yes"/>
      <point x="399" y="462"/>
      <point x="408" y="471"/>
      <point x="408" y="484" type="curve" smooth="yes"/>
      <point x="408" y="498" type="line" smooth="yes"/>
      <point x="408" y="511"/>
      <point x="399" y="520"/>
      <point x="386" y="520" type="curve" smooth="yes"/>
      <point x="103" y="520" type="line" smooth="yes"/>
      <point x="90" y="520"/>
      <point x="81" y="511"/>
      <point x="81" y="498" type="curve" smooth="yes"/>
      <point x="81" y="22" type="line" smooth="yes"/>
      <point x="81" y="9"/>
      <point x="90" y="0"/>
    </contour>
    <contour>
      <point x="142" y="277" type="curve"/>
      <point x="142" y="193" type="line"/>
      <point x="142" y="243"/>
      <point x="185" y="262"/>
      <point x="258" y="262" type="curve" smooth="yes"/>
      <point x="351" y="262"/>
      <point x="401" y="197"/>
      <point x="401" y="91" type="curve"/>
      <point x="401" y="78" type="line"/>
      <point x="401" y="-39"/>
      <point x="383" y="-132"/>
      <point x="221" y="-132" type="curve"/>
      <point x="217" y="-132" type="line"/>
      <point x="204" y="-132"/>
      <point x="195" y="-141"/>
      <point x="195" y="-154" type="curve"/>
      <point x="195" y="-168" type="line"/>
      <point x="195" y="-181"/>
      <point x="204" y="-190"/>
      <point x="217" y="-190" type="curve"/>
      <point x="221" y="-190" type="line"/>
      <point x="416" y="-190"/>
      <point x="462" y="-72"/>
      <point x="462" y="78" type="curve"/>
      <point x="462" y="96" type="line"/>
      <point x="462" y="223"/>
      <point x="397" y="320"/>
      <point x="268" y="320" type="curve" smooth="yes"/>
      <point x="210" y="320"/>
      <point x="173" y="306"/>
    </contour>
  </outline>
</glyph>
<glyph name="Esdescender-cy" format="2">
  <advance width="651"/>
  <unicode hex="04AA"/>
  <outline>
    <contour>
      <point x="323" y="-140" type="curve" smooth="yes"/>
      <point x="341" y="-140" type="line" smooth="yes"/>
      <point x="355" y="-140"/>
      <point x="364" y="-131"/>
      <point x="364" y="-118" type="curve" smooth="yes"/>
      <point x="364" y="38" type="line"/>
      <point x="301" y="0" type="line"/>
      <point x="301" y="-118" type="line" smooth="yes"/>
      <point x="301" y="-131"/>
      <point x="310" y="-140"/>
    </contour>
    <component base="Es-cy"/>
  </outline>
</glyph>
<glyph name="esdescender-cy" format="2">
  <advance width="536"/>
  <unicode hex="04AB"/>
  <outline>
    <contour>
      <point x="271" y="-130" type="curve" smooth="yes"/>
      <point x="288" y="-130" type="line" smooth="yes"/>
      <point x="301" y="-130"/>
      <point x="310" y="-121"/>
      <point x="310" y="-108" type="curve" smooth="yes"/>
      <point x="310" y="36" type="line"/>
      <point x="249" y="0" type="line"/>
      <point x="249" y="-108" type="line" smooth="yes"/>
      <point x="249" y="-121"/>
      <point x="258" y="-130"/>
    </contour>
    <component base="es-cy"/>
  </outline>
</glyph>
<glyph name="Chekhakassian-cy" format="2">
  <advance width="635"/>
  <unicode hex="04CB"/>
  <outline>
    <contour>
      <point x="446" y="-140" type="line" smooth="yes"/>
      <point x="459" y="-140"/>
      <point x="468" y="-131"/>
      <point x="468" y="-118" type="curve" smooth="yes"/>
      <point x="468" y="0" type="line"/>
      <point x="511" y="0" type="line"/>
      <point x="541" y="60" type="line"/>
      <point x="428" y="60" type="line" smooth="yes"/>
      <point x="414" y="60"/>
      <point x="405" y="51"/>
      <point x="405" y="38" type="curve" smooth="yes"/>
      <point x="405" y="-118" type="line" smooth="yes"/>
      <point x="405" y="-131"/>
      <point x="414" y="-140"/>
      <point x="428" y="-140" type="curve" smooth="yes"/>
    </contour>
    <component base="Che-cy"/>
  </outline>
</glyph>
<glyph name="dagesh-hb" format="2">
  <unicode hex="05BC"/>
  <anchor x="1" y="289" name="_center"/>
  <outline>
    <contour>
      <point x="-11" y="285" type="curve" smooth="yes"/>
      <point x="12" y="285" type="line" smooth="yes"/>
      <point x="25" y="285"/>
      <point x="34" y="294"/>
      <point x="34" y="307" type="curve" smooth="yes"/>
      <point x="34" y="330" type="line" smooth="yes"/>
      <point x="34" y="343"/>
      <point x="25" y="352"/>
      <point x="12" y="352" type="curve" smooth="yes"/>
      <point x="-11" y="352" type="line" smooth="yes"/>
      <point x="-24" y="352"/>
      <point x="-33" y="343"/>
      <point x="-33" y="330" type="curve" smooth="yes"/>
      <point x="-33" y="307" type="line" smooth="yes"/>
      <point x="-33" y="294"/>
      <point x="-24" y="285"/>
    </contour>
  </outline>
</glyph>
<glyph name="bet-hb" format="2">
  <advance width="532"/>
  <unicode hex="05D1"/>
  <guideline x="-16" y="571" angle="0"/>
  <guideline x="24"/>
  <guideline x="500"/>
  <anchor x="266" y="0" name="bottom"/>
  <anchor x="20" y="0" name="bottomleft"/>
  <anchor x="215" y="260" name="center"/>
  <anchor x="266" y="520" name="top"/>
  <anchor x="20" y="520" name="topleft"/>
  <outline>
    <contour>
      <point x="80" y="0" type="curve" smooth="yes"/>
      <point x="480" y="0" type="line" smooth="yes"/>
      <point x="493" y="0"/>
      <point x="502" y="9"/>
      <point x="502" y="22" type="curve" smooth="yes"/>
      <point x="502" y="36" type="line" smooth="yes"/>
      <point x="502" y="49"/>
      <point x="493" y="58"/>
      <point x="480" y="58" type="curve" smooth="yes"/>
      <point x="442" y="58" type="line"/>
      <point x="442" y="327" type="line" smooth="yes"/>
      <point x="442" y="481"/>
      <point x="365" y="571"/>
      <point x="195" y="571" type="curve" smooth="yes"/>
      <point x="90" y="571" type="line" smooth="yes"/>
      <point x="77" y="571"/>
      <point x="68" y="562"/>
      <point x="68" y="549" type="curve"/>
      <point x="68" y="535" type="line" smooth="yes"/>
      <point x="68" y="522"/>
      <point x="77" y="513"/>
      <point x="90" y="513" type="curve" smooth="yes"/>
      <point x="190" y="513" type="line" smooth="yes"/>
      <point x="325" y="513"/>
      <point x="381" y="442"/>
      <point x="381" y="322" type="curve" smooth="yes"/>
      <point x="381" y="58" type="line"/>
      <point x="80" y="58" type="line" smooth="yes"/>
      <point x="67" y="58"/>
      <point x="58" y="49"/>
      <point x="58" y="36" type="curve" smooth="yes"/>
      <point x="58" y="22" type="line" smooth="yes"/>
      <point x="58" y="9"/>
      <point x="67" y="0"/>
    </contour>
  </outline>
</glyph>
<glyph name="gimel-hb" format="2">
  <advance width="430"/>
  <unicode hex="05D2"/>
  <guideline x="5" y="571" angle="0"/>
  <anchor x="225" y="0" name="bottom"/>
  <anchor x="25" y="0" name="bottomleft"/>
  <anchor x="157" y="260" name="center"/>
  <anchor x="255" y="520" name="top"/>
  <anchor x="25" y="520" name="topleft"/>
  <outline>
    <contour>
      <point x="351" y="0" type="curve" smooth="yes"/>
      <point x="368" y="0" type="line" smooth="yes"/>
      <point x="381" y="0"/>
      <point x="392" y="9"/>
      <point x="390" y="22" type="curve" smooth="yes"/>
      <point x="329" y="337" type="line" smooth="yes"/>
      <point x="298" y="489"/>
      <point x="254" y="571"/>
      <point x="136" y="571" type="curve" smooth="yes"/>
      <point x="99" y="571" type="line" smooth="yes"/>
      <point x="86" y="571"/>
      <point x="77" y="562"/>
      <point x="77" y="549" type="curve" smooth="yes"/>
      <point x="77" y="535" type="line" smooth="yes"/>
      <point x="77" y="522"/>
      <point x="86" y="513"/>
      <point x="99" y="513" type="curve" smooth="yes"/>
      <point x="136" y="513" type="line" smooth="yes"/>
      <point x="219" y="513"/>
      <point x="244" y="449"/>
      <point x="268" y="332" type="curve" smooth="yes"/>
      <point x="329" y="22" type="line" smooth="yes"/>
      <point x="332" y="9"/>
      <point x="338" y="0"/>
    </contour>
    <contour>
      <point x="210" y="51" type="curve" smooth="yes"/>
      <point x="275" y="96"/>
      <point x="341" y="196"/>
      <point x="341" y="271" type="curve"/>
      <point x="283" y="259" type="line"/>
      <point x="288" y="220"/>
      <point x="226" y="140"/>
      <point x="175" y="106" type="curve" smooth="yes"/>
      <point x="141" y="83"/>
      <point x="85" y="64"/>
      <point x="71" y="59" type="curve" smooth="yes"/>
      <point x="56" y="53"/>
      <point x="50" y="44"/>
      <point x="50" y="34" type="curve" smooth="yes"/>
      <point x="50" y="7" type="line" smooth="yes"/>
      <point x="50" y="-7"/>
      <point x="61" y="-10"/>
      <point x="74" y="-8" type="curve" smooth="yes"/>
      <point x="121" y="1"/>
      <point x="161" y="17"/>
    </contour>
  </outline>
</glyph>
<glyph name="het-hb" format="2">
  <advance width="609"/>
  <unicode hex="05D7"/>
  <guideline y="571"/>
  <guideline x="70"/>
  <guideline x="517"/>
  <anchor x="305" y="0" name="bottom"/>
  <anchor x="20" y="0" name="bottomleft"/>
  <anchor x="305" y="260" name="center"/>
  <anchor x="305" y="520" name="top"/>
  <anchor x="20" y="520" name="topleft"/>
  <outline>
    <contour>
      <point x="106" y="0" type="curve" smooth="yes"/>
      <point x="123" y="0" type="line" smooth="yes"/>
      <point x="136" y="0"/>
      <point x="145" y="9"/>
      <point x="145" y="22" type="curve" smooth="yes"/>
      <point x="145" y="513" type="line"/>
      <point x="279" y="513" type="line" smooth="yes"/>
      <point x="414" y="513"/>
      <point x="470" y="442"/>
      <point x="470" y="322" type="curve" smooth="yes"/>
      <point x="470" y="22" type="line" smooth="yes"/>
      <point x="470" y="9"/>
      <point x="479" y="0"/>
      <point x="492" y="0" type="curve" smooth="yes"/>
      <point x="509" y="0" type="line" smooth="yes"/>
      <point x="522" y="0"/>
      <point x="531" y="9"/>
      <point x="531" y="22" type="curve" smooth="yes"/>
      <point x="531" y="327" type="line" smooth="yes"/>
      <point x="531" y="482"/>
      <point x="454" y="571"/>
      <point x="284" y="571" type="curve" smooth="yes"/>
      <point x="106" y="571" type="line" smooth="yes"/>
      <point x="93" y="571"/>
      <point x="84" y="562"/>
      <point x="84" y="549" type="curve"/>
      <point x="84" y="22" type="line" smooth="yes"/>
      <point x="84" y="9"/>
      <point x="93" y="0"/>
    </contour>
  </outline>
</glyph>
<glyph name="tsadi-hb" format="2">
  <advance width="511"/>
  <unicode hex="05E6"/>
  <guideline x="27"/>
  <anchor x="256" y="0" name="bottom"/>
  <anchor x="20" y="0" name="bottomleft"/>
  <anchor x="142" y="204" name="center"/>
  <anchor x="256" y="520" name="top"/>
  <anchor x="20" y="520" name="topleft"/>
  <outline>
    <contour>
      <point x="77" y="0" type="curve" smooth="yes"/>
      <point x="422" y="0" type="line" smooth="yes"/>
      <point x="435" y="0"/>
      <point x="444" y="9"/>
      <point x="444" y="22" type="curve" smooth="yes"/>
      <point x="444" y="36" type="line" smooth="yes"/>
      <point x="444" y="47"/>
      <point x="440" y="56"/>
      <point x="433" y="66" type="curve"/>
      <point x="97" y="555" type="line"/>
      <point x="92" y="563"/>
      <point x="84" y="571"/>
      <point x="72" y="571" type="curve"/>
      <point x="54" y="571" type="line" smooth="yes"/>
      <point x="43" y="571"/>
      <point x="33" y="562"/>
      <point x="33" y="551" type="curve" smooth="yes"/>
      <point x="33" y="546"/>
      <point x="35" y="540"/>
      <point x="41" y="531" type="curve" smooth="yes"/>
      <point x="362" y="58" type="line"/>
      <point x="77" y="58" type="line" smooth="yes"/>
      <point x="64" y="58"/>
      <point x="55" y="49"/>
      <point x="55" y="36" type="curve" smooth="yes"/>
      <point x="55" y="22" type="line" smooth="yes"/>
      <point x="55" y="9"/>
      <point x="64" y="0"/>
    </contour>
    <contour>
      <point x="302" y="224" type="line"/>
      <point x="398" y="256"/>
      <point x="448" y="332"/>
      <point x="448" y="447" type="curve" smooth="yes"/>
      <point x="448" y="549" type="line" smooth="yes"/>
      <point x="448" y="562"/>
      <point x="439" y="571"/>
      <point x="426" y="571" type="curve" smooth="yes"/>
      <point x="409" y="571" type="line" smooth="yes"/>
      <point x="396" y="571"/>
      <point x="387" y="562"/>
      <point x="387" y="549" type="curve" smooth="yes"/>
      <point x="387" y="452" type="line" smooth="yes"/>
      <point x="387" y="358"/>
      <point x="353" y="293"/>
      <point x="273" y="271" type="curve"/>
    </contour>
  </outline>
</glyph>
<glyph name="endash" format="2">
  <advance width="577"/>
  <unicode hex="2013"/>
  <guideline y="300"/>
  <outline>
    <contour>
      <point x="96" y="271" type="curve" smooth="yes"/>
      <point x="481" y="271" type="line" smooth="yes"/>
      <point x="494" y="271"/>
      <point x="503" y="280"/>
      <point x="503" y="293" type="curve" smooth="yes"/>
      <point x="503" y="307" type="line" smooth="yes"/>
      <point x="503" y="320"/>
      <point x="494" y="329"/>
      <point x="481" y="329" type="curve" smooth="yes"/>
      <point x="96" y="329" type="line" smooth="yes"/>
      <point x="83" y="329"/>
      <point x="74" y="320"/>
      <point x="74" y="307" type="curve" smooth="yes"/>
      <point x="74" y="293" type="line" smooth="yes"/>
      <point x="74" y="280"/>
      <point x="83" y="271"/>
    </contour>
  </outline>
</glyph>
<glyph name="euro" format="2">
  <advance width="726"/>
  <unicode hex="20AC"/>
  <guideline y="349"/>
  <outline>
    <contour>
      <point x="398" y="-10" type="curve" smooth="yes"/>
      <point x="588" y="-10"/>
      <point x="661" y="101"/>
      <point x="666" y="186" type="curve" smooth="yes"/>
      <point x="667" y="198"/>
      <point x="657" y="206"/>
      <point x="645" y="206" type="curve"/>
      <point x="625" y="206" type="line"/>
      <point x="614" y="206"/>
      <point x="607" y="201"/>
      <point x="603" y="185" type="curve" smooth="yes"/>
      <point x="577" y="86"/>
      <point x="505" y="50"/>
      <point x="398" y="50" type="curve" smooth="yes"/>
      <point x="274" y="50"/>
      <point x="200" y="117"/>
      <point x="197" y="270" type="curve" smooth="yes"/>
      <point x="197" y="430" type="line" smooth="yes"/>
      <point x="200" y="583"/>
      <point x="274" y="650"/>
      <point x="398" y="650" type="curve" smooth="yes"/>
      <point x="505" y="650"/>
      <point x="577" y="614"/>
      <point x="603" y="515" type="curve" smooth="yes"/>
      <point x="607" y="499"/>
      <point x="614" y="494"/>
      <point x="625" y="494" type="curve"/>
      <point x="645" y="494" type="line"/>
      <point x="657" y="494"/>
      <point x="667" y="502"/>
      <point x="666" y="514" type="curve" smooth="yes"/>
      <point x="661" y="599"/>
      <point x="588" y="710"/>
      <point x="398" y="710" type="curve" smooth="yes"/>
      <point x="214" y="710"/>
      <point x="138" y="592"/>
      <point x="133" y="434" type="curve" smooth="yes"/>
      <point x="133" y="266" type="line" smooth="yes"/>
      <point x="138" y="108"/>
      <point x="214" y="-10"/>
    </contour>
    <contour>
      <point x="69" y="250" type="curve" smooth="yes"/>
      <point x="421" y="250" type="line" smooth="yes"/>
      <point x="434" y="250"/>
      <point x="443" y="259"/>
      <point x="443" y="272" type="curve" smooth="yes"/>
      <point x="443" y="288" type="line" smooth="yes"/>
      <point x="443" y="301"/>
      <point x="434" y="310"/>
      <point x="421" y="310" type="curve" smooth="yes"/>
      <point x="69" y="310" type="line" smooth="yes"/>
      <point x="56" y="310"/>
      <point x="47" y="301"/>
      <point x="47" y="288" type="curve" smooth="yes"/>
      <point x="47" y="272" type="line" smooth="yes"/>
      <point x="47" y="259"/>
      <point x="56" y="250"/>
    </contour>
    <contour>
      <point x="69" y="390" type="curve" smooth="yes"/>
      <point x="421" y="390" type="line" smooth="yes"/>
      <point x="434" y="390"/>
      <point x="443" y="399"/>
      <point x="443" y="412" type="curve" smooth="yes"/>
      <point x="443" y="428" type="line" smooth="yes"/>
      <point x="443" y="441"/>
      <point x="434" y="450"/>
      <point x="421" y="450" type="curve" smooth="yes"/>
      <point x="69" y="450" type="line" smooth="yes"/>
      <point x="56" y="450"/>
      <point x="47" y="441"/>
      <point x="47" y="428" type="curve" smooth="yes"/>
      <point x="47" y="412" type="line" smooth="yes"/>
      <point x="47" y="399"/>
      <point x="56" y="390"/>
    </contour>
  </outline>
</glyph>
<glyph name="numero" format="2">
  <advance width="1129"/>
  <unicode hex="2116"/>
  <guideline y="588"/>
  <guideline y="338"/>
  <guideline x="959"/>
  <guideline x="1075"/>
  <outline>
    <contour>
      <point x="103" y="0" type="curve"/>
      <point x="121" y="0" type="line"/>
      <point x="135" y="0"/>
      <point x="144" y="9"/>
      <point x="144" y="22" type="curve"/>
      <point x="144" y="576" type="line"/>
      <point x="510" y="12" type="line"/>
      <point x="512" y="9"/>
      <point x="518" y="0"/>
      <point x="531" y="0" type="curve"/>
      <point x="555" y="0" type="line"/>
      <point x="568" y="0"/>
      <point x="577" y="9"/>
      <point x="577" y="23" type="curve"/>
      <point x="577" y="677" type="line"/>
      <point x="577" y="691"/>
      <point x="568" y="700"/>
      <point x="554" y="700" type="curve"/>
      <point x="536" y="700" type="line"/>
      <point x="523" y="700"/>
      <point x="514" y="691"/>
      <point x="514" y="677" type="curve"/>
      <point x="514" y="122" type="line"/>
      <point x="148" y="688" type="line"/>
      <point x="146" y="691"/>
      <point x="140" y="700"/>
      <point x="127" y="700" type="curve"/>
      <point x="103" y="700" type="line"/>
      <point x="90" y="700"/>
      <point x="81" y="691"/>
      <point x="81" y="677" type="curve"/>
      <point x="81" y="22" type="line"/>
      <point x="81" y="9"/>
      <point x="90" y="0"/>
    </contour>
    <contour>
      <point x="649" y="0" type="curve"/>
      <point x="1049" y="0" type="line"/>
      <point x="1062" y="0"/>
      <point x="1071" y="9"/>
      <point x="1071" y="22" type="curve"/>
      <point x="1071" y="36" type="line"/>
      <point x="1071" y="49"/>
      <point x="1062" y="58"/>
      <point x="1049" y="58" type="curve"/>
      <point x="649" y="58" type="line"/>
      <point x="636" y="58"/>
      <point x="627" y="49"/>
      <point x="627" y="36" type="curve"/>
      <point x="627" y="22" type="line"/>
      <point x="627" y="9"/>
      <point x="636" y="0"/>
    </contour>
    <contour>
      <point x="849" y="88" type="curve" smooth="yes"/>
      <point x="983" y="88"/>
      <point x="1071" y="185"/>
      <point x="1071" y="338" type="curve" smooth="yes"/>
      <point x="1071" y="491"/>
      <point x="983" y="588"/>
      <point x="849" y="588" type="curve" smooth="yes"/>
      <point x="715" y="588"/>
      <point x="627" y="491"/>
      <point x="627" y="338" type="curve" smooth="yes"/>
      <point x="627" y="185"/>
      <point x="715" y="88"/>
    </contour>
    <contour>
      <point x="849" y="146" type="curve" smooth="yes"/>
      <point x="766" y="146"/>
      <point x="688" y="200"/>
      <point x="688" y="338" type="curve" smooth="yes"/>
      <point x="688" y="476"/>
      <point x="766" y="530"/>
      <point x="849" y="530" type="curve" smooth="yes"/>
      <point x="932" y="530"/>
      <point x="1010" y="476"/>
      <point x="1010" y="338" type="curve" smooth="yes"/>
      <point x="1010" y="200"/>
      <point x="932" y="146"/>
    </contour>
  </outline>
</glyph>
<glyph name="estimated" format="2">
  <advance width="605"/>
  <unicode hex="212E"/>
  <guideline x="298"/>
  <guideline x="541"/>
  <outline>
    <contour>
      <point x="305" y="-10" type="curve" smooth="yes"/>
      <point x="455" y="-10"/>
      <point x="529" y="73"/>
      <point x="532" y="128" type="curve" smooth="yes"/>
      <point x="533" y="140"/>
      <point x="523" y="148"/>
      <point x="511" y="148" type="curve" smooth="yes"/>
      <point x="499" y="148" type="line" smooth="yes"/>
      <point x="485" y="148"/>
      <point x="476" y="146"/>
      <point x="470" y="132" type="curve" smooth="yes"/>
      <point x="451" y="87"/>
      <point x="405" y="48"/>
      <point x="305" y="48" type="curve" smooth="yes"/>
      <point x="203" y="48"/>
      <point x="129" y="121"/>
      <point x="124" y="271" type="curve" smooth="yes"/>
      <point x="124" y="278" type="line"/>
      <point x="526" y="278" type="line" smooth="yes"/>
      <point x="539" y="278"/>
      <point x="549" y="287"/>
      <point x="549" y="300" type="curve" smooth="yes"/>
      <point x="549" y="325" type="line" smooth="yes"/>
      <point x="548" y="501"/>
      <point x="445" y="610"/>
      <point x="305" y="610" type="curve" smooth="yes"/>
      <point x="165" y="610"/>
      <point x="72" y="501"/>
      <point x="64" y="339" type="curve" smooth="yes"/>
      <point x="63" y="319"/>
      <point x="63" y="284"/>
      <point x="64" y="264" type="curve" smooth="yes"/>
      <point x="72" y="99"/>
      <point x="165" y="-10"/>
    </contour>
    <contour>
      <point x="124" y="334" type="line"/>
      <point x="124" y="339" type="line" smooth="yes"/>
      <point x="129" y="467"/>
      <point x="195" y="552"/>
      <point x="305" y="552" type="curve" smooth="yes"/>
      <point x="415" y="552"/>
      <point x="487" y="467"/>
      <point x="488" y="339" type="curve" smooth="yes"/>
      <point x="488" y="334" type="line"/>
    </contour>
  </outline>
</glyph>
<glyph name="lozenge" format="2">
  <advance width="532"/>
  <unicode hex="25CA"/>
  <guideline x="277"/>
  <outline>
    <contour>
      <point x="260" y="0" type="curve" smooth="yes"/>
      <point x="272" y="0" type="line" smooth="yes"/>
      <point x="299" y="0"/>
      <point x="315" y="19"/>
      <point x="322" y="33" type="curve" smooth="yes"/>
      <point x="475" y="327" type="line" smooth="yes"/>
      <point x="479" y="335"/>
      <point x="483" y="344"/>
      <point x="483" y="355" type="curve" smooth="yes"/>
      <point x="483" y="366"/>
      <point x="479" y="375"/>
      <point x="475" y="383" type="curve" smooth="yes"/>
      <point x="322" y="677" type="line" smooth="yes"/>
      <point x="315" y="691"/>
      <point x="299" y="710"/>
      <point x="272" y="710" type="curve" smooth="yes"/>
      <point x="260" y="710" type="line" smooth="yes"/>
      <point x="233" y="710"/>
      <point x="217" y="691"/>
      <point x="210" y="677" type="curve" smooth="yes"/>
      <point x="57" y="383" type="line" smooth="yes"/>
      <point x="53" y="375"/>
      <point x="49" y="366"/>
      <point x="49" y="355" type="curve" smooth="yes"/>
      <point x="49" y="344"/>
      <point x="53" y="335"/>
      <point x="57" y="327" type="curve" smooth="yes"/>
      <point x="210" y="33" type="line" smooth="yes"/>
      <point x="217" y="19"/>
      <point x="233" y="0"/>
    </contour>
    <contour>
      <point x="266" y="55" type="line"/>
      <point x="109" y="355" type="line"/>
      <point x="266" y="655" type="line"/>
      <point x="423" y="355" type="line"/>
    </contour>
  </outline>
</glyph>
<glyph name="fi" format="2">
  <advance width="495"/>
  <unicode hex="FB01"/>
  <guideline x="430"/>
  <guideline x="35"/>
  <outline>
    <contour>
      <point x="152" y="0" type="curve" smooth="yes"/>
      <point x="169" y="0" type="line" smooth="yes"/>
      <point x="182" y="0"/>
      <point x="191" y="9"/>
      <point x="191" y="22" type="curve" smooth="yes"/>
      <point x="191" y="462" type="line"/>
      <point x="353" y="462" type="line"/>
      <point x="353" y="22" type="line" smooth="yes"/>
      <point x="353" y="9"/>
      <point x="362" y="0"/>
      <point x="375" y="0" type="curve" smooth="yes"/>
      <point x="392" y="0" type="line" smooth="yes"/>
      <point x="405" y="0"/>
      <point x="414" y="9"/>
      <point x="414" y="22" type="curve" smooth="yes"/>
      <point x="414" y="498" type="line" smooth="yes"/>
      <point x="414" y="511"/>
      <point x="405" y="520"/>
      <point x="392" y="520" type="curve" smooth="yes"/>
      <point x="191" y="520" type="line"/>
      <point x="191" y="572" type="line" smooth="yes"/>
      <point x="191" y="643"/>
      <point x="210" y="682"/>
      <point x="281" y="682" type="curve" smooth="yes"/>
      <point x="392" y="682" type="line" smooth="yes"/>
      <point x="405" y="682"/>
      <point x="414" y="691"/>
      <point x="414" y="704" type="curve" smooth="yes"/>
      <point x="414" y="718" type="line" smooth="yes"/>
      <point x="414" y="731"/>
      <point x="405" y="740"/>
      <point x="392" y="740" type="curve" smooth="yes"/>
      <point x="281" y="740" type="line" smooth="yes"/>
      <point x="159" y="740"/>
      <point x="130" y="666"/>
      <point x="130" y="577" type="curve" smooth="yes"/>
      <point x="130" y="520" type="line"/>
      <point x="41" y="520" type="line" smooth="yes"/>
      <point x="28" y="520"/>
      <point x="19" y="511"/>
      <point x="19" y="498" type="curve" smooth="yes"/>
      <point x="19" y="484" type="line" smooth="yes"/>
      <point x="19" y="471"/>
      <point x="28" y="462"/>
      <point x="41" y="462" type="curve" smooth="yes"/>
      <point x="130" y="462" type="line"/>
      <point x="130" y="22" type="line" smooth="yes"/>
      <point x="130" y="9"/>
      <point x="139" y="0"/>
    </contour>
  </outline>
</glyph>
<glyph name="braceright.case" format="2">
  <advance width="362"/>
  <outline>
    <contour>
      <point x="67" y="819" type="curve" smooth="yes"/>
      <point x="62" y="819" type="line" smooth="yes"/>
      <point x="49" y="819"/>
      <point x="40" y="810"/>
      <point x="40" y="797" type="curve" smooth="yes"/>
      <point x="40" y="783" type="line" smooth="yes"/>
      <point x="40" y="770"/>
      <point x="49" y="761"/>
      <point x="62" y="761" type="curve" smooth="yes"/>
      <point x="67" y="761" type="line" smooth="yes"/>
      <point x="170" y="760"/>
      <point x="174" y="687"/>
      <point x="174" y="508" type="curve" smooth="yes"/>
      <point x="174" y="430"/>
      <point x="197" y="382"/>
      <point x="249" y="351" type="curve"/>
      <point x="197" y="320"/>
      <point x="174" y="272"/>
      <point x="174" y="194" type="curve" smooth="yes"/>
      <point x="174" y="15"/>
      <point x="170" y="-57"/>
      <point x="67" y="-58" type="curve" smooth="yes"/>
      <point x="62" y="-58" type="line" smooth="yes"/>
      <point x="49" y="-58"/>
      <point x="40" y="-67"/>
      <point x="40" y="-80" type="curve" smooth="yes"/>
      <point x="40" y="-94" type="line" smooth="yes"/>
      <point x="40" y="-107"/>
      <point x="49" y="-116"/>
      <point x="62" y="-116" type="curve" smooth="yes"/>
      <point x="67" y="-116" type="line" smooth="yes"/>
      <point x="224" y="-116"/>
      <point x="235" y="-10"/>
      <point x="235" y="173" type="curve" smooth="yes"/>
      <point x="235" y="248"/>
      <point x="253" y="278"/>
      <point x="290" y="304" type="curve"/>
      <point x="296" y="308" type="line"/>
      <point x="314" y="320"/>
      <point x="320" y="329"/>
      <point x="320" y="345" type="curve" smooth="yes"/>
      <point x="320" y="357" type="line" smooth="yes"/>
      <point x="320" y="373"/>
      <point x="314" y="382"/>
      <point x="296" y="394" type="curve"/>
      <point x="291" y="397" type="line"/>
      <point x="254" y="423"/>
      <point x="235" y="453"/>
      <point x="235" y="529" type="curve" smooth="yes"/>
      <point x="235" y="712"/>
      <point x="224" y="819"/>
    </contour>
  </outline>
</glyph>
<glyph name="commaaccentcomb.case" format="2">
  <guideline y="-210"/>
  <guideline y="-50"/>
  <outline>
    <contour>
      <point x="85" y="-210" type="curve" smooth="yes"/>
      <point x="103" y="-210" type="line" smooth="yes"/>
      <point x="118" y="-210"/>
      <point x="123" y="-202"/>
      <point x="129" y="-189" type="curve"/>
      <point x="169" y="-84" type="line" smooth="yes"/>
      <point x="172" y="-77"/>
      <point x="173" y="-71"/>
      <point x="173" y="-66" type="curve" smooth="yes"/>
      <point x="173" y="-58"/>
      <point x="167" y="-50"/>
      <point x="158" y="-50" type="curve" smooth="yes"/>
      <point x="113" y="-50" type="line" smooth="yes"/>
      <point x="97" y="-50"/>
      <point x="90" y="-61"/>
      <point x="88" y="-77" type="curve" smooth="yes"/>
      <point x="71" y="-189" type="line" smooth="yes"/>
      <point x="69" y="-201"/>
      <point x="74" y="-210"/>
    </contour>
  </outline>
</glyph>
<glyph name="dieresiscomb.case" format="2">
  <guideline y="750"/>
  <anchor x="203" y="700" name="_top"/>
  <anchor x="203" y="833" name="top"/>
  <outline>
    <contour>
      <point x="275" y="750" type="curve" smooth="yes"/>
      <point x="313" y="750" type="line" smooth="yes"/>
      <point x="326" y="750"/>
      <point x="336" y="759"/>
      <point x="336" y="772" type="curve" smooth="yes"/>
      <point x="336" y="810" type="line" smooth="yes"/>
      <point x="336" y="823"/>
      <point x="326" y="833"/>
      <point x="313" y="833" type="curve" smooth="yes"/>
      <point x="275" y="833" type="line" smooth="yes"/>
      <point x="262" y="833"/>
      <point x="253" y="823"/>
      <point x="253" y="810" type="curve" smooth="yes"/>
      <point x="253" y="772" type="line" smooth="yes"/>
      <point x="253" y="759"/>
      <point x="262" y="750"/>
    </contour>
    <contour>
      <point x="92" y="750" type="curve" smooth="yes"/>
      <point x="130" y="750" type="line" smooth="yes"/>
      <point x="143" y="750"/>
      <point x="153" y="759"/>
      <point x="153" y="772" type="curve" smooth="yes"/>
      <point x="153" y="810" type="line" smooth="yes"/>
      <point x="153" y="823"/>
      <point x="143" y="833"/>
      <point x="130" y="833" type="curve" smooth="yes"/>
      <point x="92" y="833" type="line" smooth="yes"/>
      <point x="79" y="833"/>
      <point x="70" y="823"/>
      <point x="70" y="810" type="curve" smooth="yes"/>
      <point x="70" y="772" type="line" smooth="yes"/>
      <point x="70" y="759"/>
      <point x="79" y="750"/>
    </contour>
  </outline>
</glyph>
<glyph name="euro.BRACKET.125" format="2">
  <advance width="726"/>
  <guideline y="349"/>
  <outline>
    <contour>
      <point x="398" y="-10" type="curve" smooth="yes"/>
      <point x="588" y="-10"/>
      <point x="661" y="101"/>
      <point x="666" y="186" type="curve" smooth="yes"/>
      <point x="667" y="198"/>
      <point x="657" y="206"/>
      <point x="645" y="206" type="curve"/>
      <point x="625" y="206" type="line"/>
      <point x="614" y="206"/>
      <point x="607" y="201"/>
      <point x="603" y="185" type="curve" smooth="yes"/>
      <point x="577" y="86"/>
      <point x="505" y="50"/>
      <point x="398" y="50" type="curve" smooth="yes"/>
      <point x="274" y="50"/>
      <point x="200" y="117"/>
      <point x="197" y="270" type="curve" smooth="yes"/>
      <point x="197" y="430" type="line" smooth="yes"/>
      <point x="200" y="583"/>
      <point x="274" y="650"/>
      <point x="398" y="650" type="curve" smooth="yes"/>
      <point x="505" y="650"/>
      <point x="577" y="614"/>
      <point x="603" y="515" type="curve" smooth="yes"/>
      <point x="607" y="499"/>
      <point x="614" y="494"/>
      <point x="625" y="494" type="curve"/>
      <point x="645" y="494" type="line"/>
      <point x="657" y="494"/>
      <point x="667" y="502"/>
      <point x="666" y="514" type="curve" smooth="yes"/>
      <point x="661" y="599"/>
      <point x="588" y="710"/>
      <point x="398" y="710" type="curve" smooth="yes"/>
      <point x="214" y="710"/>
      <point x="138" y="592"/>
      <point x="133" y="434" type="curve" smooth="yes"/>
      <point x="133" y="266" type="line" smooth="yes"/>
      <point x="138" y="108"/>
      <point x="214" y="-10"/>
    </contour>
    <contour>
      <point x="69" y="320" type="curve" smooth="yes"/>
      <point x="421" y="320" type="line" smooth="yes"/>
      <point x="434" y="320"/>
      <point x="443" y="329"/>
      <point x="443" y="342" type="curve" smooth="yes"/>
      <point x="443" y="358" type="line" smooth="yes"/>
      <point x="443" y="371"/>
      <point x="434" y="380"/>
      <point x="421" y="380" type="curve" smooth="yes"/>
      <point x="69" y="380" type="line" smooth="yes"/>
      <point x="56" y="380"/>
      <point x="47" y="371"/>
      <point x="47" y="358" type="curve" smooth="yes"/>
      <point x="47" y="342" type="line" smooth="yes"/>
      <point x="47" y="329"/>
      <point x="56" y="320"/>
    </contour>
  </outline>
</glyph>
<glyph name="macroncomb.case" format="2">
  <anchor x="192" y="700" name="_top"/>
  <anchor x="192" y="816" name="top"/>
  <outline>
    <contour>
      <point x="92" y="750" type="curve" smooth="yes"/>
      <point x="291" y="750" type="line" smooth="yes"/>
      <point x="304" y="750"/>
      <point x="313" y="759"/>
      <point x="313" y="772" type="curve" smooth="yes"/>
      <point x="313" y="794" type="line" smooth="yes"/>
      <point x="313" y="807"/>
      <point x="304" y="816"/>
      <point x="291" y="816" type="curve" smooth="yes"/>
      <point x="92" y="816" type="line" smooth="yes"/>
      <point x="79" y="816"/>
      <point x="70" y="807"/>
      <point x="70" y="794" type="curve" smooth="yes"/>
      <point x="70" y="772" type="line" smooth="yes"/>
      <point x="70" y="759"/>
      <point x="79" y="750"/>
    </contour>
  </outline>
</glyph>
<glyph name="one.otlf" format="2">
  <advance width="600"/>
  <guideline x="80"/>
  <outline>
    <contour>
      <point x="119" y="0" type="curve"/>
      <point x="512" y="0" type="line"/>
      <point x="526" y="0"/>
      <point x="535" y="9"/>
      <point x="535" y="22" type="curve"/>
      <point x="535" y="37" type="line"/>
      <point x="535" y="51"/>
      <point x="526" y="60"/>
      <point x="512" y="60" type="curve"/>
      <point x="352" y="60" type="line"/>
      <point x="352" y="678" type="line"/>
      <point x="352" y="691"/>
      <point x="343" y="700"/>
      <point x="330" y="700" type="curve"/>
      <point x="311" y="700" type="line"/>
      <point x="302" y="700"/>
      <point x="294" y="699"/>
      <point x="285" y="693" type="curve"/>
      <point x="106" y="555" type="line"/>
      <point x="95" y="547"/>
      <point x="94" y="534"/>
      <point x="102" y="524" type="curve"/>
      <point x="113" y="510" type="line"/>
      <point x="121" y="499"/>
      <point x="133" y="498"/>
      <point x="144" y="506" type="curve"/>
      <point x="289" y="618" type="line"/>
      <point x="289" y="60" type="line"/>
      <point x="119" y="60" type="line"/>
      <point x="105" y="60"/>
      <point x="96" y="51"/>
      <point x="96" y="37" type="curve"/>
      <point x="96" y="22" type="line"/>
      <point x="96" y="9"/>
      <point x="105" y="0"/>
    </contour>
  </outline>
</glyph>
<glyph name="pedagesh-hb.black" format="2">
  <advance width="563"/>
  <guideline x="10" y="571" angle="0"/>
  <guideline x="10" y="336" angle="0"/>
  <anchor x="280" y="0" name="bottom"/>
  <anchor x="30" y="0" name="bottomleft"/>
  <anchor x="310" y="260" name="center"/>
  <anchor x="280" y="520" name="top"/>
  <anchor x="30" y="520" name="topleft"/>
  <outline>
    <contour>
      <point x="306" y="226" type="curve" smooth="yes"/>
      <point x="319" y="226" type="line" smooth="yes"/>
      <point x="332" y="226"/>
      <point x="341" y="235"/>
      <point x="341" y="248" type="curve" smooth="yes"/>
      <point x="341" y="311" type="line" smooth="yes"/>
      <point x="341" y="324"/>
      <point x="332" y="333"/>
      <point x="319" y="333" type="curve" smooth="yes"/>
      <point x="306" y="333" type="line" smooth="yes"/>
      <point x="293" y="333"/>
      <point x="284" y="324"/>
      <point x="284" y="311" type="curve" smooth="yes"/>
      <point x="284" y="248" type="line" smooth="yes"/>
      <point x="284" y="235"/>
      <point x="293" y="226"/>
    </contour>
    <component base="pe-hb"/>
  </outline>
</glyph>
<glyph name="two.otlf" format="2">
  <advance width="600"/>
  <guideline x="538"/>
  <guideline x="73"/>
  <guideline x="513"/>
  <outline>
    <contour>
      <point x="94" y="0" type="curve" smooth="yes"/>
      <point x="504" y="0" type="line" smooth="yes"/>
      <point x="518" y="0"/>
      <point x="527" y="9"/>
      <point x="527" y="22" type="curve" smooth="yes"/>
      <point x="527" y="37" type="line" smooth="yes"/>
      <point x="527" y="51"/>
      <point x="518" y="60"/>
      <point x="504" y="60" type="curve" smooth="yes"/>
      <point x="169" y="60" type="line"/>
      <point x="403" y="298" type="line" smooth="yes"/>
      <point x="476" y="366"/>
      <point x="512" y="425"/>
      <point x="512" y="507" type="curve" smooth="yes"/>
      <point x="512" y="612"/>
      <point x="453" y="710"/>
      <point x="301" y="710" type="curve" smooth="yes"/>
      <point x="149" y="710"/>
      <point x="85" y="593"/>
      <point x="82" y="502" type="curve" smooth="yes"/>
      <point x="82" y="491"/>
      <point x="90" y="483"/>
      <point x="103" y="483" type="curve"/>
      <point x="123" y="483" type="line" smooth="yes"/>
      <point x="131" y="483"/>
      <point x="144" y="490"/>
      <point x="146" y="506" type="curve" smooth="yes"/>
      <point x="157" y="592"/>
      <point x="210" y="650"/>
      <point x="301" y="650" type="curve" smooth="yes"/>
      <point x="396" y="650"/>
      <point x="449" y="596"/>
      <point x="449" y="507" type="curve" smooth="yes"/>
      <point x="449" y="445"/>
      <point x="431" y="407"/>
      <point x="356" y="338" type="curve" smooth="yes"/>
      <point x="97" y="79" type="line" smooth="yes"/>
      <point x="78" y="62"/>
      <point x="72" y="50"/>
      <point x="72" y="37" type="curve" smooth="yes"/>
      <point x="72" y="22" type="line" smooth="yes"/>
      <point x="72" y="9"/>
      <point x="81" y="0"/>
    </contour>
  </outline>
</glyph>
<glyph name="yen.BRACKET.125" format="2">
  <advance width="586"/>
  <guideline x="322"/>
  <outline>
    <contour>
      <point x="283" y="0" type="curve" smooth="yes"/>
      <point x="302" y="0" type="line" smooth="yes"/>
      <point x="316" y="0"/>
      <point x="325" y="9"/>
      <point x="325" y="22" type="curve" smooth="yes"/>
      <point x="325" y="294" type="line"/>
      <point x="546" y="667" type="line" smooth="yes"/>
      <point x="548" y="671"/>
      <point x="550" y="675"/>
      <point x="550" y="680" type="curve" smooth="yes"/>
      <point x="550" y="691"/>
      <point x="541" y="700"/>
      <point x="530" y="700" type="curve" smooth="yes"/>
      <point x="508" y="700" type="line" smooth="yes"/>
      <point x="499" y="700"/>
      <point x="491" y="695"/>
      <point x="485" y="685" type="curve" smooth="yes"/>
      <point x="293" y="361" type="line"/>
      <point x="101" y="685" type="line" smooth="yes"/>
      <point x="95" y="695"/>
      <point x="87" y="700"/>
      <point x="78" y="700" type="curve" smooth="yes"/>
      <point x="56" y="700" type="line" smooth="yes"/>
      <point x="45" y="700"/>
      <point x="36" y="691"/>
      <point x="36" y="680" type="curve" smooth="yes"/>
      <point x="36" y="675"/>
      <point x="38" y="671"/>
      <point x="40" y="667" type="curve" smooth="yes"/>
      <point x="261" y="294" type="line"/>
      <point x="261" y="22" type="line" smooth="yes"/>
      <point x="261" y="9"/>
      <point x="270" y="0"/>
    </contour>
    <contour>
      <point x="113" y="193" type="curve" smooth="yes"/>
      <point x="473" y="193" type="line" smooth="yes"/>
      <point x="486" y="193"/>
      <point x="495" y="202"/>
      <point x="495" y="215" type="curve" smooth="yes"/>
      <point x="495" y="231" type="line" smooth="yes"/>
      <point x="495" y="244"/>
      <point x="486" y="253"/>
      <point x="473" y="253" type="curve" smooth="yes"/>
      <point x="113" y="253" type="line" smooth="yes"/>
      <point x="100" y="253"/>
      <point x="91" y="244"/>
      <point x="91" y="231" type="curve" smooth="yes"/>
      <point x="91" y="215" type="line" smooth="yes"/>
      <point x="91" y="202"/>
      <point x="100" y="193"/>
    </contour>
  </outline>
</glyph>
